<?xml version="1.0" encoding="UTF-8"?>
<svg id="_レイヤー_2" data-name="レイヤー_2" xmlns="http://www.w3.org/2000/svg" viewBox="0 0 919.95334 264.80672">
  <defs>
    <style>
      .cls-1 {
        fill: #85cf16;
      }

      .cls-2 {
        fill: #124c9d;
      }

      .cls-3 {
        fill: #353535;
      }
    </style>
  </defs>
  <g id="_レイヤー_1-2" data-name="レイヤー_1">
    <g>
      <g>
        <path class="cls-2" d="M120.74344,59.17508c-.00024,3.02592-.05375,6.05313.01965,9.07727.04461,1.83891-.72566,2.74163-2.4813,3.36453-4.98971,1.77035-10.02901,3.48534-14.81915,5.71533-8.94213,4.16293-16.20776,10.48356-21.84732,18.56928-5.78139,8.2891-9.45529,17.49751-11.06566,27.46246-1.88673,11.67522-.4323,22.97662,4.35769,33.81756,6.01959,13.62376,15.62114,23.99285,28.78533,30.8842,10.18827,5.33345,21.17349,7.39045,32.65302,6.61161,8.48416-.57558,16.65122-2.52754,24.24048-6.4082,16.14548-8.25574,26.51247-21.38068,32.00506-38.51793.30593-.95459.51044-1.94475.86151-2.88111.70292-1.87469,1.86831-2.94985,4.10761-2.89924,5.40834.1222,10.82136.03646,16.23249.04054,3.43724.00259,3.91103.6495,3.22551,4.09741-1.70078,8.55447-4.49691,16.7041-8.63425,24.40672-6.37822,11.87453-14.98732,21.67393-25.97952,29.56444-17.49993,12.56187-36.97388,17.63939-58.2249,15.65805-19.37321-1.80624-36.2501-9.49962-50.49726-22.89724-6.99422-6.57714-12.87491-14.03433-17.2839-22.47734-5.36946-10.28231-8.71409-21.2636-9.5241-32.95847-.83889-12.11178.50672-23.90803,4.5943-35.34183,5.17639-14.4795,13.39421-26.85275,25.11252-36.98565,11.65718-10.08005,25.15115-16.04024,40.05106-19.20265,3.84814-.81674,4.10583-.57908,4.11074,3.32285.00336,2.65914.00064,5.31827.0004,7.97741Z"/>
        <path class="cls-1" d="M132.9226,93.86632c19.99756-.32236,38.7567,17.40897,38.12314,39.78878-.57836,20.4315-17.6306,37.39606-38.6017,37.39862-20.62107.0025-38.84918-17.26992-38.27834-39.70133.53019-20.83721,18.01859-37.90315,38.7569-37.48606Z"/>
        <path class="cls-2" d="M144.21774,253.40625c.00013-2.65179-.00998-5.3036.00272-7.95532.01582-3.30514.56079-3.76322,3.88862-4.41083,5.46105-1.06269,10.98458-1.96927,16.31116-3.52537,13.58279-3.96806,25.62781-10.92046,36.72708-19.63031,14.08066-11.04936,24.7225-24.78313,31.80082-41.15672,4.02931-9.32063,6.97492-19.05289,8.22194-29.19513.30462-2.47783,1.31991-3.50475,3.88604-3.43911,5.40673.13832,10.81944.03018,16.22966.0464,3.46321.01039,3.88805.51091,3.44987,3.81808-2.21693,16.73446-6.86155,32.70515-14.95883,47.59155-8.28409,15.22979-18.98505,28.47384-32.32825,39.58709-8.69855,7.24485-18.17309,13.2957-28.40533,18.04436-12.04583,5.59032-24.66512,9.35782-37.88386,11.23618-8.5109,1.2094-6.85806-.26079-6.93864-6.33527-.02066-1.55829-.00312-3.11706-.00299-4.67561Z"/>
        <path class="cls-1" d="M253.4129,120.97503c-2.84158-.00029-5.68699-.09093-8.5236.02776-2.3639.09891-3.45175-.86797-3.88798-3.20739-1.03881-5.5704-2.17024-11.13037-3.49549-16.63895-2.03187-8.4459-5.85589-16.17339-10.12828-23.66585-9.90932-17.37795-23.97648-30.6665-41.14774-40.63514-10.85125-6.29958-22.64047-10.24664-35.07191-12.3019-8.07141-1.33442-6.80612-.39365-6.87976-7.791-.04562-4.58178.0955-9.16769-.05039-13.74527-.07834-2.4587.75667-3.27165,3.20478-2.95045,31.55731,4.14047,58.61347,17.41939,80.86517,40.16277,15.67929,16.02574,26.35274,35.11085,32.54425,56.58654,1.9925,6.91104,2.71517,14.18682,4.04426,21.29098.41503,2.21839-.52182,2.97359-2.67453,2.89492-2.92936-.10706-5.86554-.0267-8.79879-.027Z"/>
        <path class="cls-1" d="M120.69853,253.26265c-.00077,2.74947.02462,5.49924-.00766,8.24832-.03433,2.91859-.57907,3.3654-3.45189,3.00023-19.33357-2.45746-37.51394-8.27991-54.09102-18.68378-21.24938-13.33621-38.07586-30.76069-49.28575-53.39032-7.01537-14.16213-11.35316-29.1246-13.72418-44.69831-.45303-2.97565.11573-3.66436,3.11224-3.69175,5.49965-.05031,11.00049.02406,16.50005-.03149,2.5766-.02601,3.7424,1.06782,4.07656,3.6874,2.77309,21.73931,12.0156,40.51312,26.22198,57.03374,15.68041,18.23474,35.50067,29.39906,58.77338,34.75328,2.94054.67649,5.90101,1.27787,8.87044,1.81313,2.13849.38549,3.18231,1.39154,3.04471,3.71336-.16235,2.73986-.03809,5.4967-.03887,8.24617Z"/>
        <path class="cls-2" d="M11.49522,120.48303c-2.84345-.0007-5.68844-.05851-8.52985.01728-2.34648.06259-3.07597-1.034-2.79761-3.23964,2.22084-17.59624,7.35042-34.29117,16.11684-49.71595,7.88221-13.86894,17.87722-26.09575,30.09327-36.4528,8.1794-6.93468,17.08857-12.779,26.64257-17.5785C87.04519,6.46804,101.94073,2.21371,117.53345.40802c2.17827-.25225,3.13703.4773,3.06796,2.89872-.16662,5.84349-.00464,11.69606-.14337,17.54098-.01639.69052-.96998,1.77648-1.67908,1.96505-4.5907,1.22073-9.24234,2.20972-13.85868,3.33731-13.28788,3.24571-25.37066,9.02844-36.47579,17.01547-10.74258,7.72625-19.78604,17.07628-27.15391,27.99818-6.05412,8.97441-11.03368,18.53983-13.74351,29.11201-1.40188,5.46935-2.6413,10.98464-3.78229,16.51463-.544,2.63655-1.57867,4.06263-4.5705,3.74842-2.54026-.26678-5.13079-.05505-7.69906-.05575Z"/>
        <path class="cls-1" d="M205.79772,120.97567c-2.84326-.00296-5.68897-.07622-8.52898.02007-2.30199.07805-3.43835-.85919-4.00831-3.14477-2.51721-10.09419-7.01688-19.19917-14.07585-26.93082-7.73267-8.46954-16.86705-14.82093-28.0334-17.85725-7.1313-1.93915-7.1881-1.80055-7.11786-9.15363.04374-4.5802.22225-9.15995.20821-13.73949-.00682-2.22611.78808-2.95254,3.00592-2.48002,27.71756,5.90532,49.25711,20.17545,61.68566,46.27343,3.34852,7.03128,5.60093,14.61024,8.02479,22.04588,1.41673,4.34611.72234,4.96756-3.73104,4.96939-2.47636.00102-4.95276.00018-7.42913-.00279Z"/>
      </g>
      <g>
        <path class="cls-3" d="M464.34698,232.8469h-27.33323c-.98688-45.76672-1.97094-91.40184-2.95499-137.03693-.17962-.02451-.35923-.04899-.53885-.07347-.99783,4.79199-2.00799,9.58146-2.99137,14.37641-4.52119,22.04557-9.047,44.09029-13.5475,66.14008-3.7103,18.17837-7.41204,36.35859-11.03913,54.55363-.34192,1.71521-1.02628,2.2375-2.72289,2.21188-5.93548-.0895-11.87395-.09007-17.80942-.00025-1.73948.02634-2.30049-.59298-2.64244-2.2805-3.41164-16.83661-6.9346-33.65064-10.42068-50.4722-4.2354-20.43722-8.46612-40.87542-12.69759-61.31347-1.44527-6.98065-2.87991-13.96345-4.3463-20.93966-.09111-.43347-.41782-.81745-1.18182-1.1497-.88404,45.24194-1.76808,90.48389-2.65595,135.92169h-27.58926c0-.87199-.01128-1.62662.00161-2.38084.94738-55.47479,1.89681-110.94953,2.8457-166.42429.17065-9.97659.39625-19.95278.4632-29.93006.01387-2.06702.6771-2.60298,2.67664-2.58695,10.92648.08765,21.85506.11934,32.7804-.02287,2.22182-.02892,2.94809.72225,3.35065,2.74374,2.63368,13.22504,5.37222,26.4292,8.0692,39.64164,3.24708,15.90751,6.47734,31.81839,9.73265,47.7242,3.04831,14.89441,6.11825,29.78445,9.1843,44.67524.2346,1.1394.51382,2.26963,1.26686,3.44488,1.00359-4.57782,2.02729-9.15133,3.00715-13.73422,3.50167-16.37762,6.98612-32.75893,10.48149-49.13791,4.23037-19.82317,8.46515-39.64535,12.69814-59.46798.98647-4.6196,2.00218-9.23327,2.94269-13.86219.28242-1.39002.85477-2.00512,2.40109-1.99611,10.92682.06386,21.85473.09121,32.78094-.01207,2.3108-.0218,2.15959,1.27919,2.1846,2.79188.34555,20.90025.67579,41.80081,1.06717,62.70021.82781,44.20597,1.68969,88.41129,2.53451,132.61691.01954,1.02223.00246,2.04516.00246,3.27926Z"/>
        <path class="cls-3" d="M919.85783,132.20058c0,15.47977.26507,30.96559-.08798,46.43729-.25896,11.34572-2.65812,22.4114-8.12813,32.46203-5.90739,10.85409-14.8327,18.35902-26.86989,21.81379-9.45136,2.71265-19.08845,3.21987-28.87314,2.55053-9.27887-.63476-18.26682-2.18387-26.44247-6.87555-10.16437-5.83291-16.60708-14.6184-20.28251-25.63824-3.88798-11.65702-4.8655-23.69724-4.89713-35.85461-.06173-23.73999-.09453-47.48064.01503-71.22028.05325-11.54297,1.00893-22.98318,4.7548-34.05841,5.0379-14.89523,14.76599-25.10981,29.94985-29.35822,16.16689-4.52348,32.53767-4.42181,48.57436.67448,12.58026,3.99785,21.19436,12.72371,26.34195,24.80623,3.70896,8.70601,5.67156,17.89776,5.84178,27.30736.2831,15.6463.0772,31.30143.0772,46.95281.00876.00028.01752.00054.02628.00079ZM841.37469,132.36781c0,14.87463-.17218,29.75219.08275,44.62243.10537,6.14953.75249,12.35028,1.8368,18.40539,1.06578,5.95162,4.7409,10.4199,10.70848,12.07125,3.32074.91893,6.9595.96575,10.45097.93619,8.44293-.07148,14.37395-4.3869,16.25153-12.64882,1.35852-5.9778,2.08455-12.22247,2.12784-18.35492.2115-29.91963.12989-59.8416.06472-89.76259-.00914-4.20046-.17943-8.45296-.86367-12.58395-.60792-3.67033-1.47392-7.50558-3.21058-10.7396-4.00838-7.46453-11.27865-8.28854-18.7739-7.85012-10.274.60095-16.15303,5.96627-17.4847,16.14184-.67806,5.18161-1.08677,10.43161-1.14002,15.65557-.14987,14.70107-.05231,29.40472-.05023,44.10733Z"/>
        <path class="cls-3" d="M746.20193,154.08551h-21.4571v-22.93051h54.28739v101.71137c-.81369.03885-1.63749.11096-2.46139.11225-6.10935.00967-12.22264-.12098-18.32603.06966-2.33078.07278-2.93063-.87013-3.14579-2.88785-.4647-4.35827-1.07643-8.70116-1.65747-13.04641-.12233-.9148-.37117-1.81272-.69804-3.36669-1.02598,1.90355-1.72065,3.31694-2.52495,4.66496-6.24768,10.47065-15.20028,16.4044-27.62248,17.13493-9.33329.54887-18.41338-.21294-27.09069-3.73205-13.93758-5.65248-21.49586-16.81655-25.71714-30.65092-3.23843-10.61337-4.40546-21.55003-4.40593-32.59835-.00113-26.32331-.09394-52.64964.28464-78.96848.15727-10.93188,2.06157-21.72863,6.23555-31.96769,5.22555-12.81863,14.44706-21.44632,27.7581-25.2317,14.33718-4.07718,28.91703-4.10279,43.37988-.71783,15.91786,3.72553,26.67386,13.46334,31.32016,29.24001,1.75982,5.97553,2.87448,12.2322,3.45454,18.43812.58095,6.21562.12765,12.52791.12765,19.01419h-34.78705c0-.90226.03889-1.88575-.00618-2.86535-.35542-7.7218-.39641-15.47621-1.17128-23.15633-1.1445-11.34358-8.08411-16.80801-19.58135-15.90663-2.71909.21319-5.53036.49925-8.07995,1.38359-6.72275,2.33182-9.57854,7.90459-10.48837,14.41315-.85491,6.11585-1.40863,12.32454-1.44127,18.49581-.14785,27.9585-.11095,55.91835-.03435,83.87741.02171,7.91584.34388,15.85704,3.55181,23.29259,2.94837,6.83397,8.26328,10.26373,15.69466,10.56088,6.05253.24199,11.94691-.00873,16.53-4.74155,3.58884-3.70606,5.36432-8.31592,6.36979-13.28462,2.40981-11.90815,1.50682-23.94669,1.70263-36.35598Z"/>
        <path class="cls-3" d="M522.85627,136.89947c-10.84306-.43306-21.29707-.8506-32.26024-1.28845.44217-4.20427.67876-8.114,1.29443-11.96312,1.28921-8.06004,3.81848-15.65544,8.96492-22.19172,6.39305-8.11958,15.16552-11.90692,25.00788-13.48464,8.27458-1.32641,16.60533-1.45101,24.8826.28392,14.16346,2.96872,22.8644,11.85046,26.36753,25.53418,1.5785,6.16594,2.15185,12.71772,2.25175,19.10899.28767,18.40211.19342,36.81223.07301,55.21803-.09463,14.46589.37836,28.88637,2.30383,43.23758.05499.40972.06803.82501.11527,1.42256-.78545.07747-1.43992.19719-2.0946.19816-8.60307.0127-17.20673-.04493-25.80873.05094-1.87804.02092-2.51685-.61072-2.76562-2.42145-.66622-4.84946-1.53057-9.67194-2.33995-14.50117-.13418-.80069-.38786-1.58135-.55259-2.23705-2.3055,3.76418-4.23894,7.69644-6.87638,11.0802-7.59255,9.74084-17.81781,12.15552-29.33163,9.11034-12.62743-3.33969-19.7387-12.49224-22.21506-24.68551-4.09774-20.17677,3.05305-38.04479,22.25373-50.15699,9.87932-6.23204,20.6894-10.40131,31.60491-14.31227,2.33434-.83632,3.18891-1.95934,3.0347-4.43306-.37414-6.00171-.16783-12.05385-.79968-18.02176-.85749-8.0992-5.53669-12.0513-15.07542-9.48339-3.79107,1.02059-5.67224,4.15323-6.38074,7.74593-.74449,3.77518-1.01032,7.64723-1.42624,11.48334-.15601,1.43898-.14577,2.89601-.22769,4.70639ZM546.74168,161.38017c-.21269-.19725-.42539-.39453-.63808-.59178-4.84008,3.34403-9.8926,6.42252-14.47621,10.08717-9.65596,7.72019-12.89062,17.86045-10.06772,29.85023.89264,3.79137,2.87616,6.95409,6.71375,8.57287,5.89101,2.4849,16.93656-2.92584,18.39527-9.04109.07837-.32853.07016-.68223.07024-1.02422.00328-12.61773.00274-25.23545.00274-37.85318Z"/>
        <path class="cls-3" d="M639.01511,232.81845h-33.51125V89.4901h33.51125v143.32835Z"/>
        <path class="cls-3" d="M639.14425,38.49943v27.73447h-33.61111v-27.73447h33.61111Z"/>
      </g>
    </g>
  </g>
</svg>