<?xml version="1.0" encoding="UTF-8"?>
<svg id="_レイヤー_2" data-name="レイヤー_2" xmlns="http://www.w3.org/2000/svg" viewBox="0 0 635.44609 515.89131">
  <defs>
    <style>
      .cls-1 {
        fill: #85cf16;
      }

      .cls-2 {
        fill: #124c9d;
      }

      .cls-3 {
        fill: #353535;
      }
    </style>
  </defs>
  <g id="_レイヤー_1-2" data-name="レイヤー_1">
    <g>
      <g>
        <path class="cls-2" d="M306.12305,59.17508c-.00024,3.02592-.05375,6.05313.01965,9.07727.04461,1.83891-.72566,2.74163-2.4813,3.36453-4.98971,1.77035-10.02901,3.48534-14.81915,5.71533-8.94213,4.16293-16.20776,10.48356-21.84732,18.56928-5.78139,8.2891-9.45529,17.49751-11.06566,27.46246-1.88673,11.67522-.4323,22.97662,4.35769,33.81756,6.01959,13.62376,15.62114,23.99285,28.78533,30.8842,10.18827,5.33345,21.17349,7.39045,32.65302,6.61161,8.48416-.57558,16.65122-2.52754,24.24048-6.4082,16.14548-8.25574,26.51247-21.38068,32.00506-38.51793.30593-.95459.51044-1.94475.86151-2.88111.70292-1.87469,1.86831-2.94985,4.10761-2.89924,5.40834.1222,10.82136.03646,16.23249.04054,3.43724.00259,3.91103.6495,3.22551,4.09741-1.70078,8.55447-4.49691,16.7041-8.63425,24.40672-6.37822,11.87453-14.98732,21.67393-25.97952,29.56444-17.49993,12.56187-36.97388,17.63939-58.2249,15.65805-19.37321-1.80624-36.2501-9.49962-50.49726-22.89724-6.99422-6.57714-12.87491-14.03433-17.2839-22.47734-5.36946-10.28231-8.71409-21.2636-9.5241-32.95847-.83889-12.11178.50672-23.90803,4.5943-35.34183,5.17639-14.4795,13.39421-26.85275,25.11252-36.98565,11.65718-10.08005,25.15115-16.04024,40.05106-19.20265,3.84814-.81674,4.10583-.57908,4.11074,3.32285.00336,2.65914.00064,5.31827.0004,7.97741Z"/>
        <path class="cls-1" d="M318.30221,93.86632c19.99756-.32236,38.7567,17.40897,38.12314,39.78878-.57836,20.4315-17.6306,37.39606-38.6017,37.39862-20.62107.0025-38.84918-17.26992-38.27834-39.70133.53019-20.83721,18.01859-37.90315,38.7569-37.48606Z"/>
        <path class="cls-2" d="M329.59736,253.40625c.00013-2.65179-.00998-5.3036.00272-7.95532.01582-3.30514.56079-3.76322,3.88862-4.41083,5.46105-1.06269,10.98458-1.96927,16.31116-3.52537,13.58279-3.96806,25.62781-10.92046,36.72708-19.63031,14.08066-11.04936,24.7225-24.78313,31.80082-41.15672,4.02931-9.32063,6.97492-19.05289,8.22194-29.19513.30462-2.47783,1.31991-3.50475,3.88604-3.43911,5.40673.13832,10.81944.03018,16.22966.0464,3.46321.01039,3.88805.51091,3.44987,3.81808-2.21693,16.73446-6.86155,32.70515-14.95883,47.59155-8.28409,15.22979-18.98505,28.47384-32.32825,39.58709-8.69855,7.24485-18.17309,13.2957-28.40533,18.04436-12.04583,5.59032-24.66512,9.35782-37.88386,11.23618-8.5109,1.2094-6.85806-.26079-6.93864-6.33527-.02066-1.55829-.00312-3.11706-.00299-4.67561Z"/>
        <path class="cls-1" d="M438.79251,120.97503c-2.84158-.00029-5.68699-.09093-8.5236.02776-2.3639.09891-3.45175-.86797-3.88798-3.20739-1.03881-5.5704-2.17024-11.13037-3.49549-16.63895-2.03187-8.4459-5.85589-16.17339-10.12828-23.66585-9.90932-17.37795-23.97648-30.6665-41.14774-40.63514-10.85125-6.29958-22.64047-10.24664-35.07191-12.3019-8.07141-1.33442-6.80612-.39365-6.87976-7.791-.04562-4.58178.0955-9.16769-.05039-13.74527-.07834-2.4587.75667-3.27165,3.20478-2.95045,31.55731,4.14047,58.61347,17.41939,80.86517,40.16277,15.67929,16.02574,26.35274,35.11085,32.54425,56.58654,1.9925,6.91104,2.71517,14.18682,4.04426,21.29098.41503,2.21839-.52182,2.97359-2.67453,2.89492-2.92936-.10706-5.86554-.0267-8.79879-.027Z"/>
        <path class="cls-1" d="M306.07814,253.26265c-.00077,2.74947.02462,5.49924-.00766,8.24832-.03433,2.91859-.57907,3.3654-3.45189,3.00023-19.33357-2.45746-37.51394-8.27991-54.09102-18.68378-21.24938-13.33621-38.07586-30.76069-49.28575-53.39032-7.01537-14.16213-11.35316-29.1246-13.72418-44.69831-.45303-2.97565.11573-3.66436,3.11224-3.69175,5.49965-.05031,11.00049.02406,16.50005-.03149,2.5766-.02601,3.7424,1.06782,4.07656,3.6874,2.77309,21.73931,12.0156,40.51312,26.22198,57.03374,15.68041,18.23474,35.50067,29.39906,58.77338,34.75328,2.94054.67649,5.90101,1.27787,8.87044,1.81313,2.13849.38549,3.18231,1.39154,3.04471,3.71336-.16235,2.73986-.03809,5.4967-.03887,8.24617Z"/>
        <path class="cls-2" d="M196.87484,120.48303c-2.84345-.0007-5.68844-.05851-8.52985.01728-2.34648.06259-3.07597-1.034-2.79761-3.23964,2.22084-17.59624,7.35042-34.29117,16.11684-49.71595,7.88221-13.86894,17.87722-26.09575,30.09327-36.4528,8.1794-6.93468,17.08857-12.779,26.64257-17.5785,14.02474-7.04539,28.92029-11.29972,44.51301-13.10541,2.17827-.25225,3.13703.4773,3.06796,2.89872-.16662,5.84349-.00464,11.69606-.14337,17.54098-.01639.69052-.96998,1.77648-1.67908,1.96505-4.5907,1.22073-9.24234,2.20972-13.85868,3.33731-13.28788,3.24571-25.37066,9.02844-36.47579,17.01547-10.74258,7.72625-19.78604,17.07628-27.15391,27.99818-6.05412,8.97441-11.03368,18.53983-13.74351,29.11201-1.40188,5.46935-2.6413,10.98464-3.78229,16.51463-.544,2.63655-1.57867,4.06263-4.5705,3.74842-2.54026-.26678-5.13079-.05505-7.69906-.05575Z"/>
        <path class="cls-1" d="M391.17733,120.97567c-2.84326-.00296-5.68897-.07622-8.52898.02007-2.30199.07805-3.43835-.85919-4.00831-3.14477-2.51721-10.09419-7.01688-19.19917-14.07585-26.93082-7.73267-8.46954-16.86705-14.82093-28.0334-17.85725-7.1313-1.93915-7.1881-1.80055-7.11786-9.15363.04374-4.5802.22225-9.15995.20821-13.73949-.00682-2.22611.78808-2.95254,3.00592-2.48002,27.71756,5.90532,49.25711,20.17545,61.68566,46.27343,3.34852,7.03128,5.60093,14.61024,8.02479,22.04588,1.41673,4.34611.72234,4.96756-3.73104,4.96939-2.47636.00102-4.95276.00018-7.42913-.00279Z"/>
      </g>
      <g>
        <path class="cls-3" d="M149.75266,512.81814h-29.13825c-1.05206-48.78903-2.1011-97.43778-3.15013-146.08649-.19148-.02613-.38295-.05222-.57443-.07832-1.06372,5.10844-2.14059,10.2142-3.18891,15.32579-4.81976,23.5014-9.64445,47.0019-14.44215,70.5078-3.95532,19.37882-7.90151,38.75962-11.76812,58.15621-.3645,1.82848-1.09405,2.38525-2.9027,2.35795-6.32744-.09542-12.65808-.09602-18.98551-.00027-1.85435.02808-2.45241-.63214-2.81694-2.4311-3.63693-17.94846-7.39255-35.87284-11.10883-53.80525-4.51509-21.78685-9.0252-43.57473-13.53611-65.36245-1.54071-7.44164-3.07009-14.88556-4.63332-22.32246-.09712-.4621-.44541-.87143-1.25987-1.22562-.94242,48.2296-1.88484,96.45921-2.83134,144.89761H.00487c0-.92957-.01202-1.73404.00171-2.53807,1.00995-59.13821,2.02207-118.27635,3.03362-177.41452.18192-10.63542.42242-21.27041.49379-31.90657.01478-2.20352.72182-2.77488,2.85339-2.75778,11.64804.09343,23.29831.12722,34.94513-.02438,2.36855-.03083,3.14277.76994,3.57191,2.92493,2.8076,14.09839,5.72699,28.17451,8.60207,42.25947,3.4615,16.958,6.90509,33.91959,10.37537,50.87578,3.24961,15.878,6.52228,31.75133,9.79081,47.62547.2501,1.21464.54775,2.41951,1.35052,3.67237,1.06987-4.88013,2.16117-9.75566,3.20573-14.64119,3.73291-17.45916,7.44747-34.92225,11.17366-52.38285,4.50974-21.13224,9.02416-42.26343,13.53669-63.3951,1.05162-4.92466,2.1344-9.84301,3.13702-14.77762.30107-1.48181.91122-2.13753,2.55966-2.12792,11.6484.06808,23.29796.09723,34.9457-.01286,2.4634-.02324,2.3022,1.36366,2.32886,2.97625.36837,22.28045.72042,44.56123,1.13764,66.84077.88247,47.12522,1.80127,94.24974,2.70189,141.37459.02083,1.08974.00262,2.18022.00262,3.49581Z"/>
        <path class="cls-3" d="M635.34427,405.5254c0,16.50201.28258,33.01048-.09379,49.50389-.27606,12.09497-2.83365,23.89139-8.66489,34.60574-6.2975,11.57087-15.81221,19.5714-28.64431,23.25432-10.0755,2.89179-20.349,3.43251-30.77984,2.71896-9.89162-.67667-19.47311-2.32809-28.18866-7.3296-10.8356-6.2181-17.70377-15.58376-21.62192-27.33132-4.14473-12.42682-5.1868-25.26214-5.22053-38.22236-.06581-25.30771-.10078-50.61613.01602-75.92348.05677-12.30524,1.07556-24.50093,5.06879-36.30753,5.37059-15.87887,15.7411-26.768,31.92766-31.29696,17.23451-4.82219,34.68637-4.71382,51.78208.71903,13.41103,4.26186,22.59398,13.56395,28.0815,26.44437,3.95389,9.28093,6.04609,19.07968,6.22756,29.11067.30179,16.67955.0823,33.3685.0823,50.05345.00934.0003.01868.00057.02802.00084ZM551.6783,405.70367c0,15.85691-.18355,31.71694.08821,47.56919.11233,6.55563.80219,13.16586,1.9581,19.62084,1.13616,6.34464,5.05398,11.108,11.41564,12.8684,3.54003.97961,7.41908,1.02952,11.14112.99802,9.00048-.0762,15.32317-4.6766,17.32474-13.48412,1.44824-6.37255,2.2222-13.02961,2.26836-19.56703.22547-31.89545.13847-63.79338.069-95.69028-.00974-4.47785-.19128-9.01117-.9207-13.41496-.64806-3.91271-1.57125-8.00123-3.4226-11.44882-4.27309-7.95747-12.02346-8.83589-20.01368-8.36852-10.95247.64064-17.21973,6.36026-18.63935,17.20781-.72284,5.52379-1.15853,11.12049-1.21531,16.68942-.15977,15.67189-.05576,31.34653-.05355,47.02007Z"/>
        <path class="cls-3" d="M450.22058,428.85555h-22.87407v-24.44478h57.87238v108.42813c-.86742.04141-1.74563.11829-2.62394.11966-6.51279.01031-13.02979-.12897-19.53623.07426-2.4847.07758-3.12416-.92759-3.35353-3.07855-.49539-4.64607-1.14752-9.27576-1.76693-13.90796-.13041-.97521-.39568-1.93242-.74414-3.58901-1.09373,2.02925-1.83428,3.53598-2.69169,4.97303-6.66026,11.1621-16.20407,17.48771-29.4466,18.26648-9.94963.58512-19.62935-.227-28.87969-3.9785-14.85799-6.02575-22.91539-17.92707-27.41543-32.67503-3.45229-11.31424-4.69639-22.97314-4.69689-34.75106-.00121-28.06163-.10014-56.12649.30344-84.18335.16766-11.65379,2.19772-23.16354,6.64733-34.07875,5.57063-13.66514,15.40111-22.86258,29.59118-26.89794,15.28397-4.34643,30.82664-4.37373,46.24458-.76524,16.96903,3.97155,28.43533,14.35243,33.38846,31.17095,1.87603,6.37014,3.0643,13.03999,3.68267,19.65573.61931,6.62609.13608,13.35522.13608,20.26984h-37.0843c0-.96185.04145-2.01027-.00658-3.05457-.37889-8.23173-.42259-16.49822-1.24863-24.68552-1.22008-12.09268-8.61796-17.91797-20.87445-16.95706-2.89865.22727-5.89557.53222-8.61353,1.47496-7.1667,2.48581-10.21108,8.42659-11.181,15.36495-.91136,6.51972-1.50165,13.13842-1.53645,19.71723-.15762,29.8048-.11828,59.61105-.03662,89.41646.02315,8.43858.36659,16.9042,3.78637,24.83077,3.14307,7.28527,8.80897,10.94152,16.7311,11.25829,6.45223.25797,12.73585-.0093,17.6216-5.05467,3.82584-3.95079,5.71857-8.86508,6.79044-14.1619,2.56895-12.69453,1.60632-25.52807,1.81506-38.75684Z"/>
        <path class="cls-3" d="M212.12575,410.53459c-11.55911-.46166-22.70347-.90677-34.39062-1.37353.47137-4.48191.72358-8.64983,1.37991-12.75314,1.37435-8.5923,4.07064-16.68929,9.55694-23.6572,6.81523-8.65578,16.16702-12.69322,26.65933-14.37513,8.82101-1.414,17.7019-1.54683,26.52579.30267,15.09878,3.16477,24.37431,12.63303,28.10878,27.22039,1.68274,6.57312,2.29396,13.55757,2.40045,20.37089.30667,19.61734.20619,39.24322.07783,58.86449-.10088,15.42118.40334,30.79396,2.45597,46.09288.05862.43678.07253.8795.12288,1.51651-.83732.08259-1.535.21021-2.23292.21125-9.1712.01353-18.34301-.04789-27.51307.05431-2.00206.0223-2.68306-.65105-2.94825-2.58136-.71021-5.1697-1.63165-10.31065-2.49447-15.45879-.14304-.85357-.41347-1.68577-.58908-2.38478-2.45775,4.01276-4.51887,8.20469-7.33048,11.81191-8.09394,10.3841-18.99445,12.95824-31.26861,9.71196-13.46132-3.56023-21.0422-13.3172-23.68209-26.31567-4.36834-21.5092,3.25467-40.55717,23.72331-53.46923,10.53172-6.64359,22.05568-11.08818,33.69202-15.25741,2.48849-.89155,3.3995-2.08873,3.2351-4.72581-.39884-6.39805-.17891-12.84986-.85249-19.21187-.91412-8.63405-5.90232-12.84714-16.07096-10.10965-4.04142,1.08799-6.04682,4.4275-6.80211,8.25746-.79365,4.02448-1.07704,8.15223-1.52043,12.24167-.16632,1.534-.1554,3.08725-.24272,5.01719ZM237.58849,436.63193c-.22673-.21028-.45348-.42059-.68021-.63086-5.15971,3.56487-10.54588,6.84664-15.43218,10.75331-10.29362,8.23002-13.74188,19.03991-10.73257,31.82146.95159,4.04174,3.0661,7.41333,7.15711,9.139,6.28003,2.649,18.05501-3.11906,19.61005-9.63814.08354-.35023.07479-.72729.07488-1.09185.00349-13.45097.00292-26.90194.00292-40.3529Z"/>
        <path class="cls-3" d="M335.95542,512.78782h-35.72424v-152.79339h35.72424v152.79339Z"/>
        <path class="cls-3" d="M336.09308,305.63647v29.56598h-35.8307v-29.56598h35.8307Z"/>
      </g>
    </g>
  </g>
</svg>