<?xml version="1.0" encoding="UTF-8"?>
<svg id="_レイヤー_2" data-name="レイヤー_2" xmlns="http://www.w3.org/2000/svg" viewBox="0 0 1265.2826 307.38067">
  <defs>
    <style>
      .cls-1 {
        fill: #85cf16;
      }

      .cls-2 {
        fill: #fff;
        font-family: 'LINESeedJPApp_TTF-Regular', 'LINE Seed JP App_TTF';
        font-size: 149.55714px;
      }

      .cls-3 {
        fill: #124c9d;
      }

      .cls-4 {
        fill: #353535;
      }
    </style>
  </defs>
  <g id="_レイヤー_1-2" data-name="レイヤー_1">
    <g>
      <rect class="cls-4" width="1265.2826" height="307.38067" rx="67.95157" ry="67.95157"/>
      <g>
        <path class="cls-3" d="M137.61904,98.10295c-.00018,2.29696-.0408,4.59492.01492,6.89053.03386,1.39591-.55085,2.08116-1.88355,2.55401-3.78768,1.34387-7.613,2.64571-11.24918,4.33849-6.78795,3.16007-12.30327,7.95804-16.58424,14.09589-4.38863,6.29223-7.17748,13.28231-8.39991,20.84668-1.43221,8.86263-.32816,17.44149,3.30791,25.67082,4.56945,10.34176,11.85796,18.21291,21.85086,23.44411,7.73389,4.0486,16.07274,5.61007,24.78682,5.01886,6.44031-.43692,12.63989-1.91865,18.40088-4.86445,12.25599-6.26691,20.12554-16.23002,24.29495-29.23885.23223-.72463.38747-1.47625.65397-2.18704.53359-1.42307,1.41823-2.23923,3.11808-2.20081,4.10546.09276,8.21446.02767,12.32204.03077,2.6092.00196,2.96885.49304,2.44847,3.11033-1.29106,6.49367-3.4136,12.68003-6.55424,18.52708-4.84169,9.01392-11.37683,16.45262-19.72099,22.44228-13.28415,9.53568-28.06677,13.39002-44.19837,11.88598-14.70615-1.37112-27.51735-7.21114-38.33233-17.38123-5.3093-4.99269-9.77331-10.65342-13.12016-17.06249-4.07594-7.80527-6.61484-16.14114-7.22972-25.01868-.6368-9.19402.38465-18.14852,3.48752-26.82789,3.92938-10.99135,10.16751-20.38385,19.06285-28.0757,8.84894-7.65174,19.09217-12.1761,30.40265-14.57668,2.92112-.61999,3.11673-.43958,3.12045,2.52236.00255,2.01855.00048,4.03709.00031,6.05563Z"/>
        <path class="cls-1" d="M146.86421,124.43697c15.18009-.2447,29.4201,13.2151,28.93917,30.20356-.43903,15.50949-13.38334,28.38725-29.30245,28.38919-15.65339.0019-29.4903-13.10955-29.05698-30.13717.40246-15.81747,13.67787-28.77218,29.42025-28.45557Z"/>
        <path class="cls-3" d="M155.43832,245.54329c.0001-2.01296-.00757-4.02595.00207-6.03886.01201-2.50892.4257-2.85665,2.95184-3.34825,4.14547-.80668,8.33837-1.49487,12.38176-2.6761,10.31066-3.01214,19.454-8.28969,27.87942-14.90131,10.68859-8.38754,18.76678-18.81281,24.13991-31.24195,3.05864-7.07526,5.29465-14.463,6.24125-22.16195.23123-1.88091,1.00194-2.66045,2.94988-2.61062,4.10423.105,8.21301.02291,12.31989.03522,2.62891.00789,2.95141.38783,2.61879,2.8983-1.68287,12.70308-5.20858,24.82639-11.35521,36.12662-6.28843,11.56089-14.4115,21.61441-24.54029,30.05046-6.60305,5.49954-13.79514,10.09273-21.56241,13.69743-9.14396,4.2436-18.72323,7.1035-28.75754,8.52935-6.4606.91805-5.20593-.19796-5.26711-4.80909-.01568-1.18289-.00237-2.36615-.00227-3.54924Z"/>
        <path class="cls-1" d="M238.32807,145.01512c-2.15704-.00022-4.31698-.06903-6.47024.02107-1.79443.07508-2.62022-.65887-2.95136-2.43472-.78856-4.22847-1.64742-8.44904-2.65342-12.63058-1.54239-6.41126-4.44519-12.27718-7.68835-17.96468-7.52214-13.19155-18.20048-23.27886-31.23513-30.84602-8.23716-4.78199-17.18632-7.7782-26.62299-9.33834-6.12699-1.01295-5.16651-.29882-5.22241-5.91413-.03463-3.47801.0725-6.95917-.03825-10.434-.05947-1.86639.57439-2.4835,2.43274-2.23968,23.95507,3.14302,44.49332,13.22301,61.38453,30.48745,11.9021,12.16509,20.00429,26.65255,24.70425,42.95468,1.5125,5.24615,2.06108,10.76918,3.06998,16.16192.31505,1.68398-.39612,2.25724-2.03023,2.19752-2.22367-.08127-4.45251-.02027-6.67914-.0205Z"/>
        <path class="cls-1" d="M137.58495,245.43429c-.00059,2.08711.01869,4.17446-.00581,6.26128-.02606,2.21549-.43957,2.55467-2.62032,2.27747-14.67606-1.86545-28.47673-6.28525-41.06035-14.1828-16.13034-10.12348-28.90328-23.35036-37.41268-40.52845-5.32535-10.75044-8.61815-22.10841-10.41798-33.93036-.34389-2.25881.08785-2.78161,2.36249-2.8024,4.17477-.03819,8.35044.01827,12.52514-.0239,1.95589-.01975,2.84084.81058,3.0945,2.7991,2.10504,16.50225,9.12101,30.7534,19.90503,43.29416,11.90296,13.84194,26.94846,22.31675,44.61471,26.38112,2.23216.51352,4.47944.97002,6.73353,1.37634,1.62332.29262,2.41568,1.05631,2.31123,2.8188-.12324,2.07982-.02892,4.17253-.0295,6.25965Z"/>
        <path class="cls-3" d="M54.68902,144.64164c-2.15845-.00053-4.31808-.04442-6.47499.01312-1.78121.04751-2.33496-.78491-2.12366-2.4592,1.68584-13.35726,5.57968-26.03034,12.23425-37.73924,5.98336-10.52788,13.57055-19.80921,22.84372-27.67122,6.20896-5.2641,12.97189-9.70051,20.2243-13.34379,10.64614-5.34813,21.95331-8.57759,33.7897-9.94828,1.65352-.19149,2.38131.36232,2.32888,2.20041-.12648,4.43577-.00352,8.87845-.10883,13.31531-.01244.52417-.73631,1.34852-1.27459,1.49166-3.48479.92666-7.01584,1.67739-10.52009,2.53334-10.08679,2.46381-19.2588,6.85346-27.68867,12.9164-8.15466,5.86498-15.01953,12.96256-20.61246,21.25334-4.59567,6.81245-8.37563,14.07353-10.43266,22.09885-1.06416,4.15177-2.00501,8.33841-2.87112,12.53621-.41295,2.0014-1.19837,3.08393-3.46945,2.84541-1.9283-.20251-3.89477-.04179-5.84433-.04232Z"/>
        <path class="cls-1" d="M202.18352,145.01561c-2.15831-.00224-4.31848-.05786-6.47432.01523-1.74743.05925-2.61004-.65221-3.0427-2.38718-1.91081-7.66247-5.3265-14.57403-10.68494-20.44311-5.86985-6.4292-12.80373-11.25053-21.28007-13.55539-5.41335-1.472-5.45647-1.36679-5.40315-6.94849.0332-3.47681.16871-6.95329.15805-10.42961-.00518-1.68984.59823-2.24126,2.28178-1.88258,21.04032,4.48271,37.39094,15.31513,46.82542,35.12603,2.54186,5.33742,4.25165,11.0906,6.09159,16.73497,1.07543,3.29912.54832,3.77086-2.83222,3.77225-1.8798.00078-3.75963.00014-5.63943-.00212Z"/>
      </g>
      <text class="cls-2" transform="translate(290.97737 208.28021)"><tspan x="0" y="0">ルームに入る</tspan></text>
    </g>
  </g>
</svg>